<svg width="1200" height="630" viewBox="0 0 1200 630" fill="none" xmlns="http://www.w3.org/2000/svg">
  <defs>
    <linearGradient id="og-mark" x1="0" y1="0" x2="1" y2="1">
      <stop offset="0" stop-color="#f14b57"/><stop offset="0.55" stop-color="#e63946"/><stop offset="1" stop-color="#c1121f"/>
    </linearGradient>
    <linearGradient id="og-bg" x1="0" y1="0" x2="1" y2="1">
      <stop offset="0" stop-color="#ffffff"/><stop offset="1" stop-color="#fff5f5"/>
    </linearGradient>
  </defs>
  <rect width="1200" height="630" fill="url(#og-bg)"/>
  <!-- corner accent -->
  <path d="M1200 0 L1200 260 Q980 210 900 0 Z" fill="#e63946" opacity="0.10"/>
  <path d="M0 630 L0 420 Q210 470 300 630 Z" fill="#f59e0b" opacity="0.10"/>
  <!-- mark -->
  <g transform="translate(120 150)">
    <rect width="150" height="150" rx="38" fill="url(#og-mark)"/>
    <g transform="rotate(-12 75 78)">
      <rect x="40" y="42" width="70" height="70" rx="17" fill="#ffffff"/>
      <circle cx="60" cy="62" r="8" fill="#c1121f"/>
      <text x="83" y="102" font-family="'Arial Black', Arial, sans-serif" font-size="54" font-weight="900" fill="#c1121f" text-anchor="middle">%</text>
    </g>
    <path d="M118 22l4 9.6 9.6 4-9.6 4L118 53l-4-9.6-9.6-4 9.6-4z" fill="#ffd166"/>
  </g>
  <!-- wordmark -->
  <text x="300" y="250" font-family="'Segoe UI', Rubik, Arial, sans-serif" font-size="96" font-weight="800" letter-spacing="-3">
    <tspan fill="#0f172a">Rich</tspan><tspan fill="#e63946">Deals</tspan>
  </text>
  <!-- tagline -->
  <text x="124" y="400" font-family="'Segoe UI', Arial, sans-serif" font-size="44" font-weight="700" fill="#0f172a">Best Deals, Coupons &amp; Freebies in India</text>
  <text x="124" y="460" font-family="'Segoe UI', Arial, sans-serif" font-size="30" fill="#64748b">Handpicked, verified discounts — updated every few minutes.</text>
  <!-- store row -->
  <text x="124" y="545" font-family="'Segoe UI', Arial, sans-serif" font-size="28" font-weight="700" fill="#94a3b8">Amazon · Flipkart · Myntra · Ajio · Nykaa · 100+ stores</text>
  <rect x="124" y="565" width="360" height="5" rx="2.5" fill="#e63946"/>
</svg>
